<svg width="342" height="171" viewBox="0 0 342 171" fill="none" xmlns="http://www.w3.org/2000/svg">
<ellipse cx="171" cy="30.5" rx="171" ry="30.5" transform="matrix(1 0 0 -1 0 171)" fill="#ECECEC"/>
<g clip-path="url(#clip0_159_1365)">
<path d="M38.3259 132.005C39.1876 132.954 38.793 132.63 38.4789 132.021C38.0762 131.238 38.7527 132.74 38.5916 132.29C38.5111 132.068 38.4145 131.847 38.3339 131.618C37.9393 130.511 37.6172 129.373 37.3595 128.227C37.2387 127.666 37.142 127.105 37.0373 126.543C36.9165 125.856 37.142 127.492 37.1018 126.994C37.0937 126.852 37.0695 126.717 37.0534 126.575C37.0293 126.283 37.0051 125.99 36.9971 125.698C36.9971 125.476 36.9971 125.255 36.9971 125.034C36.9971 125.01 37.0132 124.631 37.0293 124.631C37.1259 124.631 36.7635 125.745 36.9407 125.31C36.989 125.184 37.0776 124.907 37.0937 124.773C37.0293 125.492 36.6105 125.785 36.836 125.413C36.5783 125.832 36.2561 126.172 35.7085 126.48C35.4589 126.622 35.0079 126.741 34.6857 126.78C33.9529 126.883 34.6213 126.97 33.4697 126.733C33.5421 126.749 33.6146 126.765 33.6952 126.788C34.2589 126.954 32.7287 126.219 33.2281 126.599C33.3005 126.654 33.4213 126.701 33.5019 126.749C34.0173 127.041 34.5005 127.405 34.9998 127.721C37.4803 129.31 40.75 130.053 43.3351 128.203C45.7109 126.504 46.5968 123.951 47.692 121.398C47.394 122.101 47.6276 121.54 47.692 121.398C47.8289 121.089 47.9658 120.781 48.1108 120.473C48.3282 120.022 48.5537 119.572 48.7953 119.137C49.0369 118.702 49.2866 118.299 49.5685 117.904L49.7537 117.643C50.0436 117.264 50.0114 117.311 49.6571 117.786L49.8423 117.604C50.1644 117.319 50.0919 117.375 49.6168 117.762C50.1564 117.406 49.3752 117.833 49.2785 117.857L49.496 117.793C49.0692 117.912 48.6423 117.912 48.2155 117.786C48.143 117.762 47.3216 117.296 47.8772 117.651C47.7806 117.588 47.0558 116.75 47.2652 117.13C47.4021 117.382 47.5712 117.659 47.7323 117.888C48.1591 118.497 47.394 116.964 47.6598 117.691C47.7323 117.896 47.8128 118.102 47.8853 118.307C48.4571 119.951 48.8839 121.746 49.8745 123.208C51.4208 125.492 53.9012 126.954 56.7521 126.132C58.6608 125.587 60.2231 124.18 61.4956 122.741C62.5506 121.548 63.4928 120.244 64.6686 119.153C64.8136 119.019 65.023 118.892 65.1438 118.742C65.0955 118.805 64.2982 119.264 64.8055 119.019C64.9263 118.955 65.0874 118.876 65.2002 118.797L65.2807 118.758C64.87 119.003 64.419 119.121 63.9358 119.113C63.4928 119.113 62.9935 118.963 62.5989 118.75L62.0513 118.339C61.6244 117.746 61.5198 117.627 61.7291 117.975C61.6969 117.912 61.4312 117.003 61.5359 117.572C61.5761 117.778 61.6325 117.975 61.6728 118.181C61.8499 118.963 61.5842 117.177 61.6406 117.967C61.6486 118.102 61.6647 118.236 61.6728 118.37C61.705 118.742 61.7211 119.106 61.7372 119.477C61.7775 120.837 61.7936 122.204 61.8177 123.563C61.866 126.132 61.9546 128.717 61.9385 131.286C61.9385 131.523 61.9385 131.76 61.9144 131.997C61.9144 132.139 61.8983 132.29 61.8822 132.432C61.8499 132.74 61.8661 132.622 61.9224 132.1C61.9949 132.187 61.7614 132.669 61.7372 132.788C61.6406 133.072 61.6808 132.969 61.858 132.479C61.6244 132.843 61.6647 132.796 61.9788 132.345C62.1479 132.179 62.6714 132.037 62.0915 132.242C63.0982 131.894 61.9788 132.258 61.7614 132.313L61.6083 132.345C61.1493 132.424 61.1976 132.424 61.7533 132.345C61.5359 132.456 60.8835 132.416 60.658 132.432C57.6863 132.63 54.7066 132.772 51.7187 132.867C48.7309 132.961 45.7511 133.017 42.7633 133.033C42.0063 133.033 41.2412 133.056 40.4761 133.033C40.2748 133.033 40.0815 133.017 39.8802 133.009C38.9782 132.977 40.5728 133.214 39.7755 132.993C39.6466 132.961 38.9943 132.89 38.9299 132.764L39.3567 132.954C39.1795 132.875 39.0185 132.788 38.8494 132.685C38.2453 132.369 38.8655 132.701 38.9782 132.788C38.2776 132.25 39.2279 133.199 38.9379 132.803C37.7138 131.128 35.3703 130.156 33.4294 131.389C31.7382 132.464 30.6751 135.001 31.9878 136.795C33.9448 139.475 36.5783 140.684 39.8882 140.913C42.6747 141.111 45.5418 140.921 48.3363 140.866C51.3885 140.802 54.4327 140.692 57.485 140.526C60.5372 140.36 63.968 140.549 66.5209 138.826C69.4685 136.835 70.0322 133.649 69.9839 130.369C69.9436 127.452 69.8953 124.536 69.8389 121.619C69.7987 119.501 69.9034 117.122 69.1705 115.098C67.9303 111.66 64.2579 110.261 60.9802 112.055C59.2567 112.996 58.0004 114.569 56.7682 116.031C56.1964 116.711 55.6327 117.39 54.9965 118.015C54.7388 118.268 54.4166 118.489 54.175 118.75C54.8354 118.038 54.6904 118.386 54.328 118.592C53.5388 119.05 54.7549 118.465 54.5294 118.536C53.7321 118.774 54.4166 118.181 55.8824 118.592L56.4944 118.845C56.1481 118.639 56.2689 118.742 56.8407 119.145C56.4703 118.821 56.5911 118.6 56.9454 119.374C56.8971 119.264 56.7843 119.145 56.7199 119.034C56.6072 118.853 56.5186 118.663 56.4139 118.473C56.0273 117.762 56.7441 119.382 56.4703 118.6C56.3172 118.165 56.1562 117.73 56.0112 117.288C55.23 114.901 54.3441 112.442 52.1375 110.956C49.4316 109.138 45.8558 110.063 43.8022 112.379C42.868 113.43 42.0949 114.616 41.4587 115.865C41.201 116.363 40.9674 116.877 40.7419 117.39C40.5164 117.904 40.2909 118.434 40.0654 118.955C40.001 119.106 39.4292 120.426 39.7997 119.58C39.5822 120.07 39.3809 120.568 39.1312 121.042C39.0024 121.287 38.8574 121.516 38.7205 121.753C38.3823 122.338 38.7608 121.706 38.8494 121.611C38.2856 122.251 39.5983 121.303 38.8413 121.659C39.0024 121.587 40.307 121.414 39.5339 121.39C40.8547 121.429 39.3648 121.176 39.9607 121.421C40.5084 121.651 39.4453 121.113 39.3406 121.042C37.3595 119.833 35.4911 118.45 32.9945 119.074C28.388 120.252 28.7342 125.595 29.3624 129.168C29.8537 131.981 30.651 135.404 32.6321 137.593C34.0334 139.143 36.9165 139.103 38.3259 137.593C39.8721 135.933 39.8238 133.657 38.3259 132.005Z" fill="#272727"/>
<path d="M35.475 134.795C34.1381 133.396 30.5382 120.339 35.5555 123.318C36.9568 124.14 38.6963 125.745 40.4037 125.271C41.515 124.97 42.2479 123.824 42.7472 122.813C43.9311 120.307 44.8491 117.446 46.5001 115.399C47.6678 113.818 49.649 113.162 50.8409 115.272C52.2744 117.161 52.3872 121.84 55.0126 122.473C58.1212 122.291 60.8755 115.904 63.7344 115.185C65.6673 114.916 65.6431 117.722 65.7639 119.098C65.8605 123.113 65.9169 127.152 65.9733 131.151C65.9733 132.637 65.8283 134.368 64.6123 135.333C63.7989 135.997 62.5586 136.234 61.4553 136.329C54.5938 136.803 47.6759 136.993 40.7902 136.985C38.8171 136.993 36.7474 136.582 35.5635 134.914L35.483 134.803L35.475 134.795Z" fill="#94BD8C"/>
</g>
<g clip-path="url(#clip1_159_1365)">
<path d="M256.497 125.85C257.381 126.84 257.065 126.67 256.722 125.983C256.524 125.582 256.334 124.806 256.848 126.313C256.767 126.064 256.65 125.823 256.56 125.573C256.145 124.431 255.811 123.263 255.532 122.086C255.388 121.488 255.261 120.882 255.153 120.275C255.072 119.82 255.117 118.696 255.135 120.275C255.135 119.963 255.063 119.642 255.045 119.33C255.009 118.821 255.018 118.313 255.027 117.804C255.045 116.859 254.702 118.955 254.982 118.134C255.162 117.599 255.451 117.26 254.756 118.518C254.792 118.455 254.828 118.393 254.865 118.331C254.45 118.991 254.269 119.178 253.575 119.579C254.053 119.303 252.213 120.025 252.935 119.847L251.943 119.99C252.213 119.998 252.087 119.981 251.564 119.927C250.644 119.802 251.104 119.865 251.33 119.927C251.735 120.034 251.393 120.248 250.662 119.642C250.77 119.731 250.996 119.811 251.113 119.883C253.476 121.247 255.568 122.96 258.499 122.755C261.79 122.532 264.18 120.213 265.497 117.358C265.785 116.725 266.056 116.074 266.335 115.432C266.516 115.021 266.687 114.602 266.858 114.192C266.921 114.031 267.201 113.407 266.858 114.192C267.363 113.041 267.877 111.891 268.527 110.811C268.806 110.348 269.113 109.902 269.437 109.465C269.879 108.885 268.77 110.303 269.419 109.563C269.609 109.349 270.078 109.135 269.167 109.741C269.771 109.34 268.896 109.821 268.788 109.848C269.519 109.616 268.193 109.857 267.949 109.821C267.715 109.786 266.543 109.188 267.21 109.607C266.948 109.438 266.182 108.421 266.615 109.17C266.768 109.429 266.93 109.732 267.093 109.982C267.408 110.446 266.678 108.858 266.957 109.661C267.012 109.812 267.075 109.964 267.129 110.125C267.417 110.936 267.661 111.775 267.949 112.586C268.752 114.852 269.825 117.109 271.944 118.455C274.758 120.239 277.923 119.285 280.71 117.992C281.675 117.546 282.594 117.019 283.514 116.511C283.974 116.261 284.434 116.011 284.894 115.771C285.137 115.646 285.399 115.485 285.66 115.405C284.632 115.699 285.841 115.494 285.814 115.405C285.85 115.566 284.145 115.28 284.389 115.343C283.929 115.218 283.406 114.923 283.054 114.584L282.585 113.996C282.739 114.281 282.73 114.237 282.54 113.844C282.225 113.068 282.486 113.791 282.531 113.951C282.576 114.112 282.594 114.263 282.63 114.415C282.793 115.12 282.567 113.996 282.567 113.942C282.531 114.361 282.648 114.843 282.676 115.262C282.775 117.046 282.784 118.848 282.838 120.641C282.865 121.533 282.883 122.416 282.901 123.308C282.91 123.825 282.928 124.351 282.928 124.869C282.928 125.136 282.928 125.404 282.91 125.671C282.91 125.832 282.892 126.001 282.883 126.162C282.838 126.581 282.838 126.599 282.883 126.215C283.153 125.564 282.784 126.447 282.757 126.572C282.558 127.428 283.163 125.85 282.676 126.644C282.883 126.305 283.063 126.135 283.388 125.93C282.585 126.421 284.127 125.832 283.244 126.046C282.964 126.108 282.667 126.171 282.396 126.251C282.053 126.313 282.171 126.305 282.73 126.224C282.54 126.251 282.351 126.26 282.171 126.278C281.359 126.34 280.547 126.385 279.727 126.438C276.616 126.626 273.495 126.759 270.384 126.858C267.273 126.956 264.144 127 261.033 127.009C260.275 127.009 259.509 127.027 258.751 127.009C258.553 127.009 258.075 127.063 257.922 126.956L258.463 127.027C258.246 126.991 258.03 126.947 257.813 126.893C257.813 126.893 257.218 126.768 257.191 126.715C257.768 126.974 257.831 127 257.381 126.777L257.101 126.617C256.199 126.171 257.57 127.045 257.128 126.617C256.686 126.189 257.516 127.188 257.2 126.751C255.829 124.86 253.205 123.763 251.032 125.154C249.138 126.367 247.948 129.23 249.418 131.255C251.537 134.18 254.351 135.554 257.931 135.875C260.861 136.143 263.891 135.92 266.831 135.866C270.024 135.804 273.216 135.697 276.408 135.545C279.6 135.394 283.045 135.572 285.985 134.546C289.836 133.199 291.594 130.033 291.928 126.18C292.117 124.003 291.928 121.765 291.856 119.588C291.711 114.95 292.289 107.493 286.021 106.664C282.928 106.254 280.051 108.314 277.445 109.697C277.184 109.83 276.922 109.973 276.661 110.098C276.426 110.214 275.714 110.615 276.625 110.151C276.129 110.41 275.542 110.508 275.001 110.651L274.668 110.713C275.461 110.535 276.192 110.633 276.868 111.008C276.291 110.678 277.238 111.338 277.256 111.347C276.85 110.99 276.958 110.722 277.373 111.605C277.274 111.4 277.112 111.222 277.003 111.017C276.895 110.811 276.814 110.553 276.679 110.365C277.256 111.177 276.94 111.043 276.796 110.606C276.652 110.169 276.507 109.786 276.372 109.366C275.975 108.153 275.569 106.976 275.037 105.817C273.775 103.078 271.268 100.866 268.076 101C264.523 101.152 262.061 103.935 260.465 106.807C259.689 108.198 259.085 109.67 258.472 111.124C258.372 111.356 258.273 111.596 258.174 111.828C257.678 113.006 258.544 111.008 258.03 112.167C257.75 112.792 257.489 113.416 257.137 114.005C257.038 114.165 256.47 114.718 256.957 114.317L257.119 114.103C256.767 114.442 256.848 114.406 257.362 114.005C256.668 114.442 257.759 113.978 257.922 113.898L258.201 113.862C257.696 113.844 257.777 113.862 258.445 113.898C257.543 113.808 259.067 114.352 258.273 113.826C258.084 113.701 257.858 113.594 257.669 113.469C257.083 113.113 256.533 112.702 255.956 112.337C253.909 111.061 251.321 110.571 249.129 111.828C245.125 114.129 245.838 119.526 246.568 123.254C247.163 126.26 248.02 129.819 250.112 132.156C251.681 133.904 254.91 133.859 256.488 132.156C258.219 130.283 258.165 127.714 256.488 125.85H256.497Z" fill="#272727"/>
<path d="M253.304 128.998C251.807 127.419 247.777 112.685 253.395 116.047C254.964 116.975 256.912 118.785 258.823 118.25C260.068 117.911 260.888 116.618 261.448 115.476C262.773 112.649 263.801 109.42 265.65 107.11C266.957 105.326 269.176 104.586 270.51 106.967C272.116 109.099 272.242 114.379 275.182 115.093C278.663 114.888 281.747 111.864 284.948 111.061C287.112 110.758 287.085 113.924 287.221 115.476C287.329 120.007 287.392 120.373 287.455 124.895C287.455 126.572 287.293 128.526 285.931 129.614C285.02 130.363 283.631 130.63 282.396 130.738C274.713 131.273 266.966 131.487 259.256 131.478C257.047 131.487 254.729 131.023 253.404 129.141L253.313 129.016L253.304 128.998Z" fill="#94BD8C"/>
</g>
<g clip-path="url(#clip2_159_1365)">
<path d="M108.401 10.0134C102.7 15.6288 99.3321 23.1132 97.4976 30.8033C95.4823 39.1964 94.6383 48.1725 95.1378 56.797C95.6373 65.4216 97.7646 74.4748 102.329 82.1392C106.644 89.3835 113.5 96.1735 122.216 97.4423C127.133 98.1539 131.913 97.2622 136.125 94.5703C139.871 92.1784 142.903 88.9977 145.521 85.4485C147.829 82.3193 149.664 78.8729 151.231 75.3322C153.057 71.1999 154.633 66.9734 155.839 62.6182C158.165 54.1822 159.396 45.1976 158.879 36.4444C158.38 27.9656 156.287 19.1267 151.378 12.0453C149.027 8.65887 146.116 5.61541 142.498 3.56643C138.39 1.22596 133.602 0.394367 128.942 0.0514413C124.283 -0.291484 119.761 0.994486 115.782 3.51499C113.543 4.93813 111.734 6.76421 109.848 8.59886L108.401 10.0049C106.791 11.5737 106.704 14.5143 108.401 16.0661C110.098 17.6178 112.768 17.7378 114.49 16.0661L118.004 12.6454C118.142 12.5082 118.288 12.371 118.426 12.2339C118.693 11.9852 118.96 11.7452 119.236 11.5137C119.287 11.4709 119.77 11.1279 119.365 11.4023C118.9 11.7281 119.727 11.1708 119.813 11.1108C120.571 10.605 121.363 10.1592 122.181 9.75623C122.56 9.56762 122.948 9.39616 123.335 9.21612C122.509 9.58477 123.749 9.06181 124.024 8.97608C124.507 8.82176 124.998 8.71888 125.497 8.616C125.712 8.57314 126.289 8.59029 125.48 8.616C125.669 8.616 125.859 8.58171 126.048 8.57314C127.073 8.51313 128.098 8.54742 129.123 8.62458C129.571 8.65887 130.019 8.70174 130.467 8.75318C130.725 8.77889 130.983 8.81319 131.242 8.84748C131.061 8.82176 130.423 8.71888 131.268 8.85605C132.31 9.02752 133.343 9.21612 134.368 9.47332C135.255 9.70479 136.134 9.98771 136.986 10.3135C136.228 10.022 137.417 10.5364 137.572 10.6135C137.959 10.8107 138.338 11.0336 138.709 11.2565C139.079 11.4794 139.441 11.7281 139.803 11.9767C139.88 12.0281 140.328 12.3539 139.889 12.0281C139.424 11.6852 139.983 12.1053 140.095 12.1996C140.767 12.7568 141.405 13.3569 142.016 13.9914C142.283 14.2657 142.541 14.5572 142.791 14.8401C142.938 15.003 143.885 16.0146 143.161 15.2516C143.756 15.8689 144.221 16.709 144.669 17.4292C145.59 18.8866 146.365 20.4212 147.072 21.9901C146.71 21.1842 147.287 22.5302 147.356 22.7188C147.511 23.1303 147.666 23.5504 147.812 23.9619C148.148 24.9135 148.441 25.8823 148.708 26.8511C149.208 28.6771 149.595 30.5375 149.879 32.415C149.897 32.5436 150.008 33.3409 149.931 32.7837C149.862 32.2693 149.94 32.9037 149.948 32.9723C150.008 33.4781 150.06 33.9839 150.103 34.4897C150.198 35.5014 150.258 36.5216 150.301 37.5332C150.379 39.445 150.37 41.3568 150.275 43.2686C150.181 45.1804 150.008 47.2551 149.767 49.2355C149.75 49.3556 149.647 50.1786 149.716 49.647C149.785 49.1584 149.69 49.8099 149.681 49.8614C149.604 50.3843 149.526 50.8987 149.44 51.4217C149.268 52.459 149.078 53.4964 148.872 54.5337C148.079 58.4688 147.003 62.3524 145.659 66.1332C145.332 67.0677 144.979 67.985 144.617 68.9109C144.445 69.3395 144.264 69.7682 144.1 70.1968C143.919 70.6598 144.117 70.154 144.152 70.0854C144.023 70.3855 143.894 70.6769 143.764 70.9684C143.024 72.6402 142.231 74.2777 141.353 75.8808C140.474 77.484 139.587 78.9329 138.562 80.3732C138.295 80.759 138.011 81.1362 137.736 81.5048C138.244 80.8275 137.615 81.642 137.426 81.8735C136.831 82.5936 136.203 83.288 135.548 83.9567C134.936 84.5826 134.291 85.1827 133.627 85.7485C133.447 85.9028 133.266 86.0486 133.085 86.1943C133.033 86.2372 132.568 86.5973 132.956 86.3058C133.378 85.9886 132.757 86.4429 132.654 86.5201C132.404 86.7001 132.155 86.8716 131.896 87.0345C131.173 87.506 130.432 87.909 129.657 88.2947C128.934 88.6548 129.519 88.3633 129.683 88.2947C129.459 88.3805 129.226 88.4662 128.994 88.5434C128.529 88.6977 128.046 88.8348 127.564 88.9463C127.323 88.9977 127.073 89.0406 126.832 89.092C126.996 89.0577 127.702 89.0235 126.867 89.0835C126.427 89.1178 125.997 89.1435 125.557 89.1435C125.118 89.1435 124.688 89.1178 124.248 89.092C123.421 89.0492 124.093 89.092 124.274 89.1178C123.964 89.0749 123.654 89.0149 123.353 88.9549C122.422 88.7663 121.527 88.4919 120.64 88.1833C120.588 88.1661 120.002 87.9432 120.459 88.1233C120.95 88.3205 120.226 88.0118 120.114 87.9604C119.632 87.7289 119.158 87.4889 118.702 87.2231C117.987 86.8116 117.315 86.3486 116.635 85.8857C116.48 85.7742 116.032 85.3713 116.669 85.9114C116.488 85.7571 116.307 85.6199 116.127 85.4656C115.765 85.1656 115.42 84.8483 115.076 84.5311C114.43 83.931 113.818 83.288 113.224 82.6365C112.949 82.3278 112.682 82.0192 112.415 81.702C112.268 81.522 112.122 81.3334 111.967 81.1533C112.354 81.6248 112.087 81.3076 111.863 81.0076C110.77 79.5244 109.788 77.9727 108.909 76.3524C108.47 75.5465 108.057 74.7235 107.678 73.8833C107.574 73.6604 107.48 73.4375 107.376 73.2146C107.35 73.1546 107.109 72.5888 107.299 73.0517C107.505 73.5489 107.213 72.8288 107.17 72.7088C107.058 72.4259 106.946 72.1344 106.834 71.8515C106.188 70.1283 105.637 68.3622 105.189 66.5704C104.965 65.6788 104.758 64.7786 104.586 63.8699C104.5 63.4498 104.422 63.0211 104.353 62.601C104.31 62.3439 104.267 62.0867 104.224 61.8295C104.207 61.7352 104.043 60.6549 104.121 61.1693C104.198 61.6837 104.078 60.8178 104.06 60.7064C104.035 60.5006 104.009 60.2949 103.992 60.0891C103.931 59.5404 103.88 58.9832 103.836 58.4345C103.742 57.3286 103.681 56.2226 103.647 55.1167C103.578 53.042 103.595 50.9587 103.681 48.8755C103.768 46.7922 103.948 44.5803 104.181 42.437C104.233 41.9569 104.284 41.4683 104.345 40.9882C104.379 40.6967 104.5 39.3593 104.405 40.4481C104.474 39.6079 104.646 38.7506 104.792 37.919C105.361 34.4897 106.153 31.0948 107.29 27.8113C107.566 27.014 107.884 26.2252 108.186 25.4365C108.41 24.8535 107.884 26.0966 108.143 25.5308C108.212 25.3765 108.281 25.2222 108.349 25.0679C108.556 24.6135 108.771 24.1505 109.004 23.7047C109.779 22.1616 110.658 20.6698 111.657 19.2638C111.76 19.1267 112.449 18.2008 112.113 18.6294C111.777 19.0581 112.509 18.1579 112.621 18.0207C113.207 17.3349 113.818 16.6833 114.464 16.0489C116.066 14.4715 116.17 11.548 114.464 9.98771C112.759 8.4274 110.089 8.2988 108.375 9.98771L108.401 10.0134Z" fill="#272727"/>
<path d="M122.629 94.7246C122.612 95.9763 122.5 97.2194 122.371 98.4625C122.465 97.4594 122.336 98.6939 122.319 98.814C122.267 99.1226 122.216 99.4312 122.164 99.7484C122.052 100.366 121.94 100.992 121.811 101.609C121.294 104.155 120.648 106.667 120.08 109.196C118.848 114.717 118.116 120.23 119.184 125.836C119.529 127.654 121.561 129 123.335 128.983L129.373 128.94C131.56 128.923 134.489 129.351 136.452 128.246C139.2 126.702 138.95 123.856 138.821 121.198C138.726 119.244 138.623 117.281 138.468 115.326C138.295 113.131 138.046 110.945 137.744 108.767C137.615 107.824 137.469 106.881 137.339 105.938C137.296 105.672 137.262 105.398 137.227 105.132C137.288 105.595 137.288 105.57 137.227 105.055C137.184 104.652 137.133 104.241 137.098 103.838C136.917 101.952 136.874 100.057 137.098 98.171C136.986 99.114 137.227 97.4937 137.253 97.3308C137.331 96.9365 137.408 96.5421 137.494 96.1563C137.727 95.1104 137.994 94.073 138.261 93.0357C138.821 90.8667 137.546 88.2862 135.255 87.7632C132.964 87.2402 130.553 88.4319 129.958 90.7552C129.235 93.5844 128.563 96.4392 128.365 99.3712C128.167 102.303 128.615 105.295 129.028 108.219C129.123 108.896 129.226 109.565 129.321 110.242C129.373 110.585 129.399 110.765 129.338 110.319C129.39 110.739 129.442 111.151 129.493 111.571C129.648 112.891 129.769 114.22 129.872 115.54C129.984 116.938 130.062 118.335 130.139 119.732C130.174 120.435 130.208 121.13 130.243 121.833C130.26 122.184 130.277 122.536 130.294 122.879L130.312 123.299C130.312 124.225 130.458 123.873 130.777 122.236L132.318 120.701C133.894 120.418 134.23 120.298 133.326 120.341H132.697C132.284 120.341 131.862 120.35 131.448 120.358L128.744 120.375L123.335 120.418L127.487 123.565C127.426 123.256 127.383 122.947 127.323 122.647C127.228 122.124 127.375 123.342 127.323 122.502C127.28 121.884 127.228 121.276 127.22 120.667C127.194 119.441 127.263 118.206 127.383 116.989C127.392 116.878 127.512 115.857 127.435 116.457C127.357 117.058 127.521 115.917 127.521 115.926C127.616 115.309 127.728 114.7 127.848 114.083C128.09 112.848 128.356 111.622 128.641 110.396C129.829 105.244 131.164 100.074 131.242 94.7503C131.276 92.5041 129.235 90.3609 126.935 90.4637C124.636 90.5666 122.664 92.3498 122.629 94.7503V94.7246Z" fill="#272727"/>
<path d="M111.441 13.0397C104.069 20.2069 101.287 30.829 100.064 41.0139C99.1771 48.4468 98.9445 56.0083 100.176 63.3983C101.408 70.7884 104.138 78.007 108.746 83.9224C111.2 87.0688 114.215 89.855 117.806 91.6125C121.398 93.37 125.626 94.013 129.476 92.9242C131.827 92.2641 133.972 90.9867 135.892 89.4778C141.241 85.2513 144.85 79.2244 147.588 73.0003C151.197 64.8043 153.479 56.0255 154.341 47.118C155.271 37.396 154.435 27.2797 150.163 18.4923C147.718 13.4598 143.988 8.82175 138.872 6.52415C136.358 5.3925 133.602 4.87811 130.863 4.54376C127.952 4.19226 124.894 4.04652 122.173 5.12673C119.735 6.0955 117.289 7.39861 115.403 9.20755L111.459 13.0483L111.441 13.0397Z" fill="#8CCC6A"/>
<path d="M126.935 94.7246C126.849 104.849 121.354 114.76 123.335 124.696L133.739 124.619C134.006 124.619 134.316 124.602 134.489 124.396C134.644 124.216 134.644 123.95 134.635 123.719C134.437 119.244 134.23 114.76 133.645 110.319C133.162 106.676 132.43 103.032 132.671 99.3712C132.844 96.8336 133.472 94.3559 134.11 91.8954" fill="#D69158"/>
<path d="M123.904 19.9068C122.715 28.7543 123.912 37.7046 124.421 46.5607C124.929 55.4853 125.127 64.4271 125.032 73.3689L129.261 72.8031C129.132 72.2372 129.002 71.6714 128.882 71.1056C128.279 68.4136 124.119 69.5538 124.731 72.2458C124.86 72.8116 124.989 73.3775 125.11 73.9433C125.652 76.3352 129.312 75.7522 129.338 73.3775C129.433 64.4357 129.235 55.4939 128.727 46.5693C128.219 37.6446 127.022 28.7629 128.21 19.9154C128.365 18.7666 127.108 17.7721 126.057 17.7721C124.765 17.7721 124.059 18.7666 123.904 19.9154V19.9068Z" fill="#E3E8A1"/>
<path d="M113.026 41.1854C115.36 46.2864 119.262 50.4529 123.086 54.4823L125.178 50.8987C125.058 50.873 124.937 50.8387 124.817 50.7958C125.049 50.8901 125.049 50.8816 124.834 50.7615C125.015 50.9159 125.015 50.9073 124.834 50.7444C124.748 50.6587 124.662 50.5644 124.593 50.4615C123.887 49.5785 122.276 49.6728 121.544 50.4615C120.683 51.396 120.795 52.5533 121.544 53.4964C122.155 54.268 123.077 54.7995 124.033 55.031C126.143 55.5539 127.607 53.0077 126.126 51.4474C124.291 49.5099 122.448 47.5638 120.777 45.4719C120.364 44.9575 120.269 44.8289 119.83 44.2374C119.442 43.6973 119.064 43.1572 118.702 42.5999C117.961 41.4511 117.307 40.2594 116.738 39.0163C116.273 37.9961 114.697 37.6618 113.793 38.2448C112.733 38.922 112.518 40.0794 113.017 41.1768L113.026 41.1854Z" fill="#E3E8A1"/>
<path d="M132.094 26.6024C130.613 28.5657 129.726 30.9233 128.71 33.1437C127.624 35.5099 126.539 37.8761 125.454 40.2509C124.989 41.2711 125.127 42.6085 126.229 43.1829C127.177 43.6801 128.675 43.5001 129.175 42.4113C130.26 40.0451 131.345 37.6789 132.43 35.3042C133.447 33.0923 134.334 30.7261 135.815 28.7629C136.495 27.8627 135.987 26.3281 135.04 25.8308C133.912 25.2393 132.818 25.6422 132.094 26.6024Z" fill="#E3E8A1"/>
</g>
<defs>
<clipPath id="clip0_159_1365">
<rect width="41" height="31" fill="white" transform="translate(29 110)"/>
</clipPath>
<clipPath id="clip1_159_1365">
<rect width="46" height="35" fill="white" transform="translate(246 101)"/>
</clipPath>
<clipPath id="clip2_159_1365">
<rect width="64" height="129" fill="white" transform="translate(95)"/>
</clipPath>
</defs>
</svg>
