<svg width="62" height="18" viewBox="0 0 62 18" fill="none" xmlns="http://www.w3.org/2000/svg">
<g clip-path="url(#clip0_86_2319)">
<path d="M18.6199 2.03572C18.9269 2.26786 19.2339 2.53572 19.5048 2.80357C21.2747 4.55357 20.462 7.83929 18.1684 8.44643L13.2561 9.75C13.3283 9.44643 13.3825 9.17857 13.3825 8.92857C13.3825 8.32143 13.1657 7.83929 12.7323 7.48214C12.2989 7.125 11.6848 6.94643 10.8902 6.94643C10.0233 6.94643 9.39121 7.125 8.99389 7.5C8.59657 7.875 8.41597 8.33929 8.41597 8.89286C8.41597 9.41072 8.63269 9.85714 9.04807 10.2143C9.46345 10.5714 10.0775 10.75 10.9082 10.75C12.1544 10.75 12.931 10.4286 13.2741 9.76786L11.8835 15.5714C11.5403 16.9821 10.4206 18.0179 9.13837 18.0179C9.13837 18.0179 9.13837 18.0179 9.12031 18.0179C7.16983 18.0179 5.52637 17.6429 4.15381 16.875C2.78125 16.1071 1.75183 15.0536 1.06555 13.6964C0.379266 12.3393 0.0180664 10.8214 0.0180664 9.10714C0.0180664 7.39286 0.397327 5.91072 1.15585 4.55357C1.91437 3.17857 3.10633 2.08929 4.73173 1.26786C6.35713 0.446429 8.43403 0.0357151 10.9444 0.0357151C14.2855 0.0357151 16.85 0.714287 18.6379 2.07143L18.6199 2.03572ZM16.1998 10.6964H18.7463C20.3717 10.6964 21.0399 11.875 21.0399 13.6964V14.7679C21.0399 16.5893 20.3536 17.6786 18.7463 17.6786H16.1998C14.5744 17.6786 13.7437 16.6786 13.7437 14.8571V13.7857C13.7437 11.9643 14.5744 10.7143 16.1998 10.7143V10.6964Z" fill="#171717"/>
<path d="M41.1046 2.03572C41.4116 2.26786 41.7186 2.53572 41.9895 2.80357C43.7594 4.55357 42.9467 7.83929 40.6531 8.44643L35.7407 9.75C35.813 9.44643 35.8672 9.17857 35.8672 8.92857C35.8672 8.32143 35.6504 7.83929 35.217 7.48214C34.7835 7.125 34.1695 6.94643 33.3749 6.94643C32.508 6.94643 31.8759 7.125 31.4786 7.5C31.0812 7.875 30.9007 8.33929 30.9007 8.89286C30.9007 9.41072 31.1174 9.85714 31.5327 10.2143C31.9481 10.5714 32.5622 10.75 33.3929 10.75C34.6391 10.75 35.4156 10.4286 35.7588 9.76786L34.3682 15.5714C34.025 16.9821 32.9053 18.0179 31.623 18.0179C31.623 18.0179 31.623 18.0179 31.605 18.0179C29.6545 18.0179 28.011 17.6429 26.6385 16.875C25.2659 16.1071 24.2365 15.0536 23.5502 13.6964C22.8639 12.3393 22.5027 10.8214 22.5027 9.10714C22.5027 7.39286 22.882 5.91072 23.6405 4.55357C24.399 3.17857 25.591 2.08929 27.2164 1.26786C28.8418 0.446429 30.9187 0.0357151 33.429 0.0357151C36.7702 0.0357151 39.3347 0.714287 41.1226 2.07143L41.1046 2.03572ZM38.6845 10.6964H41.231C42.8564 10.6964 43.5246 11.875 43.5246 13.6964V14.7679C43.5246 16.5893 42.8383 17.6786 41.231 17.6786H38.6845C37.0591 17.6786 36.2283 16.6786 36.2283 14.8571V13.7857C36.2283 11.9643 37.0591 10.7143 38.6845 10.7143V10.6964Z" fill="#171717"/>
<path d="M58.4422 10.7857H58.7673C57.774 10.7857 57.2322 9.69643 57.8823 8.98214L60.4288 6.21428L60.6275 5.96428C62.289 3.75 60.5913 0.714285 57.7198 0.714285H48.762C46.7935 0.714285 45.2042 2.19643 45.2042 4.03571C45.2042 5.875 46.7935 7.35714 48.762 7.35714H50.8028L46.9199 12.0893C45.1139 14.2857 46.7935 17.4464 49.7373 17.4464H58.4241C60.3927 17.4464 61.982 15.9643 61.982 14.125C61.982 12.2679 60.3927 10.7679 58.4241 10.7679L58.4422 10.7857Z" fill="#171717"/>
</g>
<defs>
<clipPath id="clip0_86_2319">
<rect width="62" height="18" fill="white"/>
</clipPath>
</defs>
</svg>
