<svg width="25" height="24" viewBox="0 0 25 24" fill="none" xmlns="http://www.w3.org/2000/svg">
<mask id="mask0_60_3025" style="mask-type:alpha" maskUnits="userSpaceOnUse" x="0" y="0" width="25" height="24">
<rect x="0.5" width="24" height="24" fill="#D9D9D9"/>
</mask>
<g mask="url(#mask0_60_3025)">
<path d="M4.5 18C3.94772 18 3.5 17.5523 3.5 17C3.5 16.4477 3.94772 16 4.5 16H20.5C21.0523 16 21.5 16.4477 21.5 17C21.5 17.5523 21.0523 18 20.5 18H4.5ZM4.5 13C3.94772 13 3.5 12.5523 3.5 12C3.5 11.4477 3.94772 11 4.5 11H20.5C21.0523 11 21.5 11.4477 21.5 12C21.5 12.5523 21.0523 13 20.5 13H4.5ZM4.5 8C3.94772 8 3.5 7.55228 3.5 7C3.5 6.44772 3.94772 6 4.5 6H20.5C21.0523 6 21.5 6.44772 21.5 7C21.5 7.55228 21.0523 8 20.5 8H4.5Z" fill="#1B1B1B"/>
</g>
</svg>
