<svg width="26" height="8" viewBox="0 0 26 8" fill="none" xmlns="http://www.w3.org/2000/svg">
<path d="M3.50004 7.16671C2.62921 7.16671 1.88372 6.85664 1.26358 6.2365C0.643444 5.61636 0.333374 4.87087 0.333374 4.00004C0.333374 3.12921 0.643444 2.38372 1.26358 1.76358C1.88372 1.14344 2.62921 0.833374 3.50004 0.833374C4.37087 0.833374 5.11636 1.14344 5.7365 1.76358C6.35664 2.38372 6.66671 3.12921 6.66671 4.00004C6.66671 4.87087 6.35664 5.61636 5.7365 6.2365C5.11636 6.85664 4.37087 7.16671 3.50004 7.16671ZM13 7.16671C12.1292 7.16671 11.3837 6.85664 10.7636 6.2365C10.1434 5.61636 9.83337 4.87087 9.83337 4.00004C9.83337 3.12921 10.1434 2.38372 10.7636 1.76358C11.3837 1.14344 12.1292 0.833374 13 0.833374C13.8709 0.833374 14.6164 1.14344 15.2365 1.76358C15.8566 2.38372 16.1667 3.12921 16.1667 4.00004C16.1667 4.87087 15.8566 5.61636 15.2365 6.2365C14.6164 6.85664 13.8709 7.16671 13 7.16671ZM22.5 7.16671C21.6292 7.16671 20.8837 6.85664 20.2636 6.2365C19.6434 5.61636 19.3334 4.87087 19.3334 4.00004C19.3334 3.12921 19.6434 2.38372 20.2636 1.76358C20.8837 1.14344 21.6292 0.833374 22.5 0.833374C23.3709 0.833374 24.1164 1.14344 24.7365 1.76358C25.3566 2.38372 25.6667 3.12921 25.6667 4.00004C25.6667 4.87087 25.3566 5.61636 24.7365 6.2365C24.1164 6.85664 23.3709 7.16671 22.5 7.16671Z" fill="#A9A9A9"/>
</svg>
