<svg width="55" height="55" viewBox="0 0 55 55" fill="none" xmlns="http://www.w3.org/2000/svg">
<rect width="55" height="55" rx="23" fill="#43C14C"/>
<mask id="mask0_46_792" style="mask-type:alpha" maskUnits="userSpaceOnUse" x="15" y="15" width="26" height="26">
<rect x="15" y="15" width="26" height="26" rx="2" fill="#D9D9D9"/>
</mask>
<g mask="url(#mask0_46_792)">
<path d="M29.4012 36.0352C28.6232 36.7991 27.3768 36.7991 26.5988 36.0352L21.9926 31.5127C21.4245 30.9549 21.4245 30.0396 21.9926 29.4818C22.5461 28.9383 23.433 28.9383 23.9866 29.4818L26.5988 32.0466C27.3768 32.8104 28.6232 32.8104 29.4012 32.0466L32.0134 29.4818C32.567 28.9383 33.4538 28.9383 34.0074 29.4818C34.5755 30.0396 34.5755 30.9549 34.0074 31.5127L29.4012 36.0352ZM29.4012 27.7122C28.6232 28.4761 27.3768 28.4761 26.5988 27.7122L21.9926 23.1897C21.4245 22.6319 21.4245 21.7166 21.9926 21.1588C22.5461 20.6153 23.433 20.6153 23.9866 21.1588L26.5988 23.7236C27.3768 24.4874 28.6232 24.4874 29.4012 23.7236L32.0134 21.1588C32.567 20.6153 33.4538 20.6153 34.0074 21.1588C34.5755 21.7166 34.5755 22.6319 34.0074 23.1897L29.4012 27.7122Z" fill="#E8F8E9"/>
</g>
</svg>
