<svg width="112" height="79" viewBox="0 0 112 79" fill="none" xmlns="http://www.w3.org/2000/svg">
<path d="M25.193 3.314H39.493V5.888H33.773V21.266H30.935V5.888H25.193V3.314ZM51.5915 15.722H42.3295C42.4028 16.7927 42.7475 17.6213 43.3635 18.208C43.9795 18.7947 44.7202 19.088 45.5855 19.088C46.3335 19.088 46.9935 18.9267 47.5655 18.604C48.1375 18.2667 48.5482 17.7753 48.7975 17.13L51.3715 17.922C50.9902 19.0953 50.2788 19.9973 49.2375 20.628C48.1962 21.2733 46.9788 21.596 45.5855 21.596C44.4708 21.596 43.4588 21.354 42.5495 20.87C41.6402 20.4007 40.9142 19.6967 40.3715 18.758C39.8288 17.8193 39.5575 16.6827 39.5575 15.348V14.028C39.5575 12.708 39.8215 11.5787 40.3495 10.64C40.8922 9.70133 41.6182 8.99733 42.5275 8.528C43.4368 8.044 44.4488 7.802 45.5635 7.802C46.6928 7.802 47.7122 8.044 48.6215 8.528C49.5308 8.99733 50.2495 9.70867 50.7775 10.662C51.3202 11.6007 51.5915 12.7447 51.5915 14.094V15.722ZM48.7975 13.39C48.7975 12.4953 48.4895 11.7547 47.8735 11.168C47.2575 10.5813 46.4875 10.288 45.5635 10.288C44.7275 10.288 44.0088 10.5593 43.4075 11.102C42.8208 11.63 42.4688 12.3927 42.3515 13.39H48.7975ZM59.4183 7.802C60.445 7.802 61.3617 8.00733 62.1683 8.418C62.9897 8.814 63.635 9.40067 64.1043 10.178C64.5737 10.9407 64.8083 11.8427 64.8083 12.884V21.266H62.2123L62.0803 19.594C61.7283 20.2247 61.237 20.716 60.6063 21.068C59.9757 21.42 59.2497 21.596 58.4283 21.596H57.5923C56.8003 21.596 56.089 21.4127 55.4583 21.046C54.8277 20.694 54.329 20.1953 53.9623 19.55C53.5957 18.9193 53.4123 18.1933 53.4123 17.372C53.4123 16.1693 53.8377 15.194 54.6883 14.446C55.539 13.698 56.7417 13.324 58.2963 13.324H62.0143V12.994C62.0143 12.2167 61.7723 11.586 61.2883 11.102C60.819 10.618 60.1297 10.376 59.2203 10.376C57.959 10.376 57.0277 10.9187 56.4263 12.004L53.8963 10.926C54.4097 10.002 55.1577 9.254 56.1403 8.682C57.123 8.09533 58.2157 7.802 59.4183 7.802ZM59.0003 19C59.763 19 60.4303 18.802 61.0023 18.406C61.5743 17.9953 61.9117 17.4453 62.0143 16.756V15.744H58.3843C57.6803 15.744 57.1377 15.8907 56.7563 16.184C56.3897 16.4773 56.2063 16.8733 56.2063 17.372C56.2063 17.8707 56.3823 18.2667 56.7343 18.56C57.101 18.8533 57.585 19 58.1863 19H59.0003ZM81.5964 7.802C82.4617 7.802 83.2317 8.02933 83.9064 8.484C84.5811 8.924 85.1017 9.562 85.4684 10.398C85.8497 11.234 86.0404 12.2093 86.0404 13.324V21.266H83.2024V13.302C83.2024 12.2753 82.9751 11.5273 82.5204 11.058C82.0804 10.5887 81.4791 10.354 80.7164 10.354C79.9977 10.354 79.4037 10.6107 78.9344 11.124C78.4797 11.6373 78.2524 12.356 78.2524 13.28V13.324V21.266H75.5024V13.302C75.5024 12.2607 75.2751 11.5053 74.8204 11.036C74.3804 10.5667 73.7864 10.332 73.0384 10.332C72.3051 10.332 71.7111 10.5813 71.2564 11.08C70.8017 11.564 70.5744 12.2973 70.5744 13.28V21.266H67.7364V8.132H70.3764L70.5084 9.738C70.8751 9.15133 71.3444 8.682 71.9164 8.33C72.4884 7.978 73.1484 7.802 73.8964 7.802C74.7324 7.802 75.4657 8.00733 76.0964 8.418C76.7417 8.82867 77.2477 9.42267 77.6144 10.2C78.0104 9.48133 78.5531 8.902 79.2424 8.462C79.9317 8.022 80.7164 7.802 81.5964 7.802Z" fill="#E0E0E0"/>
<path d="M20.05 72.05C16.8167 72.05 13.8333 71.3333 11.1 69.9C8.4 68.5 6.25 66.4667 4.65 63.8C3.05 61.1 2.25 57.9167 2.25 54.25V47.25C2.25 43.6167 3.05 40.45 4.65 37.75C6.25 35.05 8.4 33 11.1 31.6C13.8333 30.1667 16.8167 29.45 20.05 29.45C24.5167 29.45 28.2333 30.5833 31.2 32.85C34.1667 35.1167 36.15 38.3667 37.15 42.6L29.7 44.75C29.0333 41.9833 27.9333 39.9667 26.4 38.7C24.8667 37.4 22.75 36.75 20.05 36.75C18.2167 36.75 16.5333 37.1667 15 38C13.5 38.8 12.3 40.0167 11.4 41.65C10.5333 43.2833 10.1 45.25 10.1 47.55V53.95C10.1 56.25 10.5333 58.2167 11.4 59.85C12.3 61.4833 13.5 62.7167 15 63.55C16.5333 64.35 18.2167 64.75 20.05 64.75C22.2833 64.75 24.1 64.3167 25.5 63.45C26.9 62.5833 27.8833 61.5167 28.45 60.25C29.05 58.95 29.35 57.65 29.35 56.35V56.2H20.55V49.4H37.15V55.3C37.15 59 36.3667 62.1167 34.8 64.65C33.2333 67.15 31.15 69 28.55 70.2C25.95 71.4333 23.1167 72.05 20.05 72.05ZM59.2102 72.05C55.9768 72.05 52.9935 71.3333 50.2602 69.9C47.5602 68.5 45.4102 66.4667 43.8102 63.8C42.2102 61.1 41.4102 57.9167 41.4102 54.25V47.25C41.4102 43.6167 42.2102 40.45 43.8102 37.75C45.4102 35.05 47.5602 33 50.2602 31.6C52.9935 30.1667 55.9768 29.45 59.2102 29.45C63.6768 29.45 67.3935 30.5833 70.3602 32.85C73.3268 35.1167 75.3102 38.3667 76.3102 42.6L68.8602 44.75C68.1935 41.9833 67.0935 39.9667 65.5602 38.7C64.0268 37.4 61.9102 36.75 59.2102 36.75C57.3768 36.75 55.6935 37.1667 54.1602 38C52.6602 38.8 51.4602 40.0167 50.5602 41.65C49.6935 43.2833 49.2602 45.25 49.2602 47.55V53.95C49.2602 56.25 49.6935 58.2167 50.5602 59.85C51.4602 61.4833 52.6602 62.7167 54.1602 63.55C55.6935 64.35 57.3768 64.75 59.2102 64.75C61.4435 64.75 63.2602 64.3167 64.6602 63.45C66.0602 62.5833 67.0435 61.5167 67.6102 60.25C68.2102 58.95 68.5102 57.65 68.5102 56.35V56.2H59.7102V49.4H76.3102V55.3C76.3102 59 75.5268 62.1167 73.9602 64.65C72.3935 67.15 70.3102 69 67.7102 70.2C65.1102 71.4333 62.2768 72.05 59.2102 72.05ZM109.244 71.3H79.3438V65.2L98.5438 37.3H80.0938V30.2H108.294V36.3L89.0438 64.2H109.244V71.3Z" fill="#E0E0E0"/>
</svg>
