<svg width="86" height="25" viewBox="0 0 86 25" fill="none" xmlns="http://www.w3.org/2000/svg">
<g clip-path="url(#clip0_230_1786)">
<path d="M25.7884 2.82734C26.2136 3.14976 26.6388 3.52178 27.014 3.89381C29.4653 6.32436 28.3397 10.8879 25.1631 11.7311L18.3595 13.5416C18.4596 13.12 18.5346 12.748 18.5346 12.4008C18.5346 11.5575 18.2345 10.8879 17.6342 10.3918C17.0339 9.89579 16.1834 9.64778 15.0828 9.64778C13.8822 9.64778 13.0068 9.89579 12.4565 10.4166C11.9062 10.9375 11.6561 11.5823 11.6561 12.3511C11.6561 13.0704 11.9562 13.6904 12.5315 14.1865C13.1068 14.6825 13.9573 14.9305 15.1079 14.9305C16.8337 14.9305 17.9093 14.4841 18.3846 13.5664L16.4586 21.6269C15.9833 23.5863 14.4325 25.0248 12.6566 25.0248C12.6566 25.0248 12.6566 25.0248 12.6316 25.0248C9.93016 25.0248 7.65398 24.5039 5.753 23.4375C3.85201 22.371 2.42627 20.9077 1.47578 19.0228C0.525284 17.1379 0.0250244 15.0297 0.0250244 12.6488C0.0250244 10.2678 0.550297 8.20928 1.60084 6.32436C2.65139 4.41464 4.30224 2.90174 6.55341 1.76087C8.80458 0.619997 11.6811 0.0495605 15.1579 0.0495605C19.7853 0.0495605 23.3371 0.992021 25.8134 2.87694L25.7884 2.82734ZM22.4367 14.8561H25.9635C28.2147 14.8561 29.1401 16.493 29.1401 19.0228V20.5109C29.1401 23.0406 28.1896 24.5535 25.9635 24.5535H22.4367C20.1855 24.5535 19.0349 23.1646 19.0349 20.6349V19.1468C19.0349 16.617 20.1855 14.8809 22.4367 14.8809V14.8561Z" fill="#555555"/>
<path d="M56.9296 2.82734C57.3548 3.14976 57.78 3.52178 58.1552 3.89381C60.6065 6.32436 59.4809 10.8879 56.3042 11.7311L49.5007 13.5416C49.6008 13.12 49.6758 12.748 49.6758 12.4008C49.6758 11.5575 49.3756 10.8879 48.7753 10.3918C48.175 9.89579 47.3246 9.64778 46.224 9.64778C45.0234 9.64778 44.1479 9.89579 43.5977 10.4166C43.0474 10.9375 42.7972 11.5823 42.7972 12.3511C42.7972 13.0704 43.0974 13.6904 43.6727 14.1865C44.248 14.6825 45.0984 14.9305 46.249 14.9305C47.9749 14.9305 49.0505 14.4841 49.5257 13.5664L47.5997 21.6269C47.1245 23.5863 45.5737 25.0248 43.7978 25.0248C43.7978 25.0248 43.7978 25.0248 43.7727 25.0248C41.0713 25.0248 38.7952 24.5039 36.8942 23.4375C34.9932 22.371 33.5674 20.9077 32.617 19.0228C31.6665 17.1379 31.1662 15.0297 31.1662 12.6488C31.1662 10.2678 31.6915 8.20928 32.742 6.32436C33.7926 4.41464 35.4434 2.90174 37.6946 1.76087C39.9458 0.619997 42.8222 0.0495605 46.2991 0.0495605C50.9265 0.0495605 54.4783 0.992021 56.9546 2.87694L56.9296 2.82734ZM53.5778 14.8561H57.1047C59.3558 14.8561 60.2813 16.493 60.2813 19.0228V20.5109C60.2813 23.0406 59.3308 24.5535 57.1047 24.5535H53.5778C51.3267 24.5535 50.1761 23.1646 50.1761 20.6349V19.1468C50.1761 16.617 51.3267 14.8809 53.5778 14.8809V14.8561Z" fill="#555555"/>
<path d="M80.942 14.98H81.3922C80.0165 14.98 79.2661 13.4671 80.1666 12.4751L83.6934 8.63083L83.9686 8.28361C86.2698 5.20821 83.9185 0.991943 79.9415 0.991943H67.535C64.8086 0.991943 62.6075 3.05048 62.6075 5.60504C62.6075 8.1596 64.8086 10.2181 67.535 10.2181H70.3615L64.9837 16.7906C62.4824 19.8412 64.8086 24.231 68.8857 24.231H80.917C83.6434 24.231 85.8445 22.1725 85.8445 19.6179C85.8445 17.0386 83.6434 14.9552 80.917 14.9552L80.942 14.98Z" fill="#555555"/>
</g>
<defs>
<clipPath id="clip0_230_1786">
<rect width="85.8696" height="25" fill="white"/>
</clipPath>
</defs>
</svg>
